<svg xmlns="http://www.w3.org/2000/svg" xmlns:xlink="http://www.w3.org/1999/xlink" width="500" zoomAndPan="magnify" viewBox="0 0 375 374.999991" height="500" preserveAspectRatio="xMidYMid meet" version="1.2"><defs><clipPath id="81f917a009"><path d="M 18 32 L 365.863281 32 L 365.863281 318 L 18 318 Z M 18 32 "/></clipPath></defs><g id="7f4a88249f"><path style=" stroke:none;fill-rule:nonzero;fill:#a6a6a6;fill-opacity:1;" d="M 105.039062 213.0625 L 105.039062 345.113281 L 66.066406 322.632812 L 57.597656 317.761719 L 53.402344 315.285156 L 53.402344 213.0625 Z M 105.039062 213.0625 "/><path style=" stroke:none;fill-rule:nonzero;fill:#a6a6a6;fill-opacity:1;" d="M 132.316406 129.875 L 184.027344 129.875 L 184.027344 358.902344 L 132.316406 358.902344 Z M 132.316406 129.875 "/><path style=" stroke:none;fill-rule:nonzero;fill:#a6a6a6;fill-opacity:1;" d="M 262.945312 0 L 262.945312 314.386719 L 237.089844 329.75 L 211.234375 345.1875 L 211.234375 0 Z M 262.945312 0 "/><path style=" stroke:none;fill-rule:nonzero;fill:#000000;fill-opacity:1;" d="M 303.636719 115.710938 L 302.738281 115.1875 L 295.84375 111.214844 C 293.296875 114.8125 290.449219 118.636719 287.375 122.683594 L 292.996094 125.980469 L 292.996094 178.441406 C 298.09375 172.96875 302.8125 167.574219 307.160156 162.476562 L 307.160156 121.933594 C 307.160156 119.308594 305.8125 116.988281 303.636719 115.710938 Z M 298.691406 184.0625 C 296.820312 186.007812 294.945312 188.03125 292.996094 190.054688 L 292.996094 281.636719 L 270.363281 294.675781 L 262.945312 298.949219 L 211.234375 328.777344 L 203.8125 333.046875 L 184.027344 344.515625 L 159.222656 358.828125 L 158.25 359.429688 L 157.273438 358.828125 L 132.394531 344.441406 L 105.113281 328.703125 L 84.730469 317.011719 L 76.410156 312.214844 L 68.316406 307.566406 L 53.402344 298.949219 L 45.683594 294.453125 L 37.289062 289.582031 L 29.121094 284.859375 L 23.351562 281.5625 L 23.351562 125.90625 L 158.171875 48.113281 L 203.8125 74.492188 L 203.8125 58.082031 L 161.695312 33.800781 C 159.523438 32.527344 156.824219 32.527344 154.652344 33.800781 L 12.707031 115.710938 C 10.535156 116.988281 9.1875 119.308594 9.1875 121.859375 L 9.1875 285.683594 C 9.1875 288.230469 10.535156 290.554688 12.707031 291.828125 L 18.179688 294.976562 L 26.648438 299.921875 L 47.855469 312.140625 L 49.355469 312.964844 L 53.402344 315.285156 L 57.597656 317.683594 L 66.066406 322.554688 L 105.039062 345.113281 L 154.652344 373.742188 C 155.773438 374.34375 156.972656 374.71875 158.171875 374.71875 C 159.371094 374.71875 160.644531 374.417969 161.695312 373.742188 L 211.234375 345.1875 L 241.359375 327.800781 L 262.871094 315.363281 L 270.289062 311.089844 L 303.5625 291.90625 C 305.738281 290.628906 307.085938 288.308594 307.085938 285.757812 L 307.085938 174.691406 C 304.460938 177.765625 301.613281 180.914062 298.691406 184.0625 Z M 298.691406 184.0625 "/><g clip-rule="nonzero" clip-path="url(#81f917a009)"><path style=" stroke:none;fill-rule:nonzero;fill:#f11414;fill-opacity:1;" d="M 365.542969 115.710938 L 347.105469 105.820312 C 344.03125 110.839844 331.742188 133.25 307.160156 162.402344 C 302.8125 167.574219 298.09375 172.894531 292.996094 178.367188 C 284.152344 187.882812 274.1875 197.777344 262.945312 207.894531 C 248.03125 221.234375 230.867188 234.871094 211.234375 248.0625 C 202.613281 253.832031 193.546875 259.605469 183.953125 265.148438 C 168.066406 274.367188 150.902344 283.210938 132.242188 291.378906 C 123.472656 295.203125 114.40625 298.949219 104.964844 302.398438 C 95.746094 305.84375 86.152344 309.140625 76.261719 312.214844 C 70.113281 314.164062 63.894531 315.960938 57.523438 317.761719 L 53.328125 315.363281 L 49.28125 313.039062 L 47.78125 312.214844 L 26.574219 300 L 18.179688 294.976562 C 19.078125 294.753906 20.050781 294.527344 20.953125 294.226562 C 26.496094 292.730469 31.894531 291.230469 37.289062 289.65625 C 42.761719 288.007812 48.15625 286.359375 53.402344 284.558594 C 71.761719 278.488281 88.925781 271.746094 105.113281 264.476562 C 114.554688 260.203125 123.625 255.78125 132.394531 251.210938 C 151.277344 241.316406 168.441406 230.824219 184.105469 220.109375 C 193.769531 213.4375 202.839844 206.617188 211.382812 199.875 C 231.917969 183.460938 249.003906 166.972656 263.09375 151.683594 C 272.613281 141.269531 280.707031 131.527344 287.527344 122.683594 C 290.597656 118.636719 293.445312 114.8125 295.992188 111.214844 C 302.589844 101.996094 307.460938 94.277344 310.757812 88.882812 C 311.207031 88.207031 311.582031 87.535156 311.957031 86.859375 L 305.285156 83.261719 L 299.890625 80.414062 L 291.945312 76.140625 L 294.121094 74.792969 L 357.671875 35.375 L 362.84375 32.152344 L 363.144531 41.144531 Z M 365.542969 115.710938 "/></g></g></svg>