<svg xmlns="http://www.w3.org/2000/svg" xmlns:xlink="http://www.w3.org/1999/xlink" width="500" zoomAndPan="magnify" viewBox="0 0 375 374.999991" height="500" preserveAspectRatio="xMidYMid meet" version="1.2"><defs><clipPath id="0a6f5420b5"><path d="M 266 14.660156 L 324 14.660156 L 324 106 L 266 106 Z M 266 14.660156 "/></clipPath><clipPath id="e8ddb6f34e"><path d="M 115 318 L 174 318 L 174 360.410156 L 115 360.410156 Z M 115 318 "/></clipPath></defs><g id="603df67b38"><rect x="0" width="375" y="0" height="374.999991" style="fill:#ffffff;fill-opacity:1;stroke:none;"/><rect x="0" width="375" y="0" height="374.999991" style="fill:#f4f6fc;fill-opacity:1;stroke:none;"/><path style=" stroke:none;fill-rule:evenodd;fill:#12229d;fill-opacity:1;" d="M 288.632812 121.796875 C 248.324219 186.554688 58.035156 355.660156 11.015625 247.871094 C 62.207031 382 261.566406 190.945312 308.949219 140.804688 L 323.386719 154.957031 L 325.382812 99.011719 L 274.953125 110.183594 L 288.667969 121.796875 Z M 328.03125 179.226562 C 275.605469 257.664062 54.367188 381.164062 0.566406 245.984375 C 58.46875 413.886719 291.75 263.652344 352.375 203.570312 L 369.644531 221.640625 L 374.363281 152.523438 L 311.523438 164.316406 Z M 328.03125 179.226562 "/><g clip-rule="nonzero" clip-path="url(#0a6f5420b5)"><path style=" stroke:none;fill-rule:evenodd;fill:#050a30;fill-opacity:1;" d="M 266.101562 105.289062 L 323.96875 92.480469 L 323.96875 14.660156 L 266.101562 14.660156 Z M 266.101562 105.289062 "/></g><path style=" stroke:none;fill-rule:evenodd;fill:#050a30;fill-opacity:1;" d="M 248.578125 120.816406 L 248.578125 55.003906 L 190.710938 55.003906 L 190.710938 213.875 C 209.832031 198.601562 228.152344 181.949219 245.132812 164.386719 C 246.292969 163.191406 247.453125 161.992188 248.578125 160.761719 Z M 248.578125 120.816406 "/><path style=" stroke:none;fill-rule:evenodd;fill:#050a30;fill-opacity:1;" d="M 173.152344 183.253906 L 173.152344 112 L 115.175781 112 L 115.175781 262.382812 C 136.617188 252.40625 157.367188 238.761719 173.152344 227.261719 Z M 173.152344 183.253906 "/><path style=" stroke:none;fill-rule:evenodd;fill:#050a30;fill-opacity:1;" d="M 248.6875 207.199219 C 233.957031 219.898438 218.753906 232.125 203.117188 243.589844 C 199.273438 246.417969 195.136719 249.394531 190.710938 252.441406 L 190.710938 275.261719 C 195.972656 272.902344 201.125 270.4375 206.167969 267.859375 C 220.714844 260.53125 235.007812 252.222656 248.6875 243.082031 Z M 248.6875 207.199219 "/><path style=" stroke:none;fill-rule:evenodd;fill:#050a30;fill-opacity:1;" d="M 266.101562 191.78125 L 266.101562 230.78125 C 269.546875 228.207031 272.921875 225.59375 276.261719 222.945312 C 291.28125 210.9375 307.496094 196.097656 319.214844 180.207031 L 298.28125 161.269531 C 288.886719 170.628906 279.234375 179.769531 269.511719 188.660156 C 268.386719 189.675781 267.261719 190.726562 266.101562 191.742188 Z M 266.101562 191.78125 "/><path style=" stroke:none;fill-rule:evenodd;fill:#050a30;fill-opacity:1;" d="M 173.152344 282.589844 L 173.152344 264.085938 C 155.519531 275.226562 135.457031 286.179688 115.175781 293.292969 L 115.175781 298.082031 C 116.699219 297.863281 118.222656 297.644531 119.710938 297.429688 C 137.707031 294.597656 155.773438 289.339844 173.152344 282.589844 Z M 173.152344 282.589844 "/><g clip-rule="nonzero" clip-path="url(#e8ddb6f34e)"><path style=" stroke:none;fill-rule:evenodd;fill:#050a30;fill-opacity:1;" d="M 173.152344 318.035156 C 154.320312 323.949219 134.585938 328.265625 115.175781 329.355469 L 115.175781 360.339844 L 173.152344 360.339844 Z M 173.152344 318.035156 "/></g><path style=" stroke:none;fill-rule:evenodd;fill:#050a30;fill-opacity:1;" d="M 190.710938 311.976562 L 190.710938 359.46875 L 248.6875 359.46875 L 248.6875 285.347656 C 240.089844 289.992188 231.382812 294.382812 222.601562 298.515625 C 212.660156 303.195312 201.921875 307.804688 190.675781 311.976562 Z M 190.710938 311.976562 "/><path style=" stroke:none;fill-rule:evenodd;fill:#050a30;fill-opacity:1;" d="M 266.101562 275.515625 L 266.101562 359.25 L 324.078125 359.25 L 324.078125 236.550781 C 316.894531 242.027344 309.601562 247.363281 302.164062 252.476562 C 290.480469 260.53125 278.4375 268.257812 266.101562 275.515625 Z M 266.101562 275.515625 "/><path style=" stroke:none;fill-rule:evenodd;fill:#050a30;fill-opacity:1;" d="M 267.625 139.246094 C 271.871094 134.058594 276.078125 128.6875 279.851562 123.101562 L 266.101562 111.457031 L 266.101562 141.058594 C 266.609375 140.441406 267.117188 139.863281 267.589844 139.246094 Z M 267.625 139.246094 "/><path style=" stroke:none;fill-rule:evenodd;fill:#050a30;fill-opacity:1;" d="M 309.09375 150.3125 C 306.046875 153.46875 302.960938 156.625 299.84375 159.746094 L 315.660156 156.769531 L 309.058594 150.3125 Z M 309.09375 150.3125 "/></g></svg>